<mxfile host="app.diagrams.net" modified="2023-07-02T14:31:14.165Z" agent="Mozilla/5.0 (Macintosh; Intel Mac OS X 10_15_7) AppleWebKit/537.36 (KHTML, like Gecko) Chrome/114.0.0.0 Safari/537.36" etag="MrqOKyzXCgZMoRj8Vsbr" version="21.5.0" type="github">
  <diagram name="第 1 页" id="hTK1CRgL1cgssS303W54">
    <mxGraphModel dx="843" dy="566" grid="1" gridSize="10" guides="1" tooltips="1" connect="1" arrows="1" fold="1" page="1" pageScale="1" pageWidth="827" pageHeight="1169" math="0" shadow="0">
      <root>
        <mxCell id="0" />
        <mxCell id="1" parent="0" />
        <mxCell id="DNAVT7jvhDNFiMQgGq6e-4" value="" style="edgeStyle=orthogonalEdgeStyle;rounded=0;orthogonalLoop=1;jettySize=auto;html=1;dashed=1;" edge="1" parent="1" source="DNAVT7jvhDNFiMQgGq6e-1" target="DNAVT7jvhDNFiMQgGq6e-3">
          <mxGeometry relative="1" as="geometry" />
        </mxCell>
        <mxCell id="DNAVT7jvhDNFiMQgGq6e-1" value="V1.0" style="rhombus;whiteSpace=wrap;html=1;fillColor=#B3B3B3;strokeColor=#36393d;" vertex="1" parent="1">
          <mxGeometry x="80" y="160" width="60" height="60" as="geometry" />
        </mxCell>
        <mxCell id="DNAVT7jvhDNFiMQgGq6e-2" value="Tag&lt;br&gt;2504624" style="text;html=1;align=center;verticalAlign=middle;resizable=0;points=[];autosize=1;strokeColor=none;fillColor=none;" vertex="1" parent="1">
          <mxGeometry x="43" y="197" width="70" height="40" as="geometry" />
        </mxCell>
        <mxCell id="DNAVT7jvhDNFiMQgGq6e-6" value="" style="edgeStyle=orthogonalEdgeStyle;rounded=0;orthogonalLoop=1;jettySize=auto;html=1;" edge="1" parent="1" source="DNAVT7jvhDNFiMQgGq6e-3" target="DNAVT7jvhDNFiMQgGq6e-5">
          <mxGeometry relative="1" as="geometry" />
        </mxCell>
        <mxCell id="DNAVT7jvhDNFiMQgGq6e-3" value="author Jon L&lt;br&gt;tree 8675309&lt;br&gt;First commit" style="ellipse;whiteSpace=wrap;html=1;" vertex="1" parent="1">
          <mxGeometry x="210" y="140" width="100" height="100" as="geometry" />
        </mxCell>
        <mxCell id="DNAVT7jvhDNFiMQgGq6e-11" value="" style="rounded=0;orthogonalLoop=1;jettySize=auto;html=1;dashed=1;exitX=0;exitY=0.5;exitDx=0;exitDy=0;entryX=0.5;entryY=0;entryDx=0;entryDy=0;" edge="1" parent="1" source="DNAVT7jvhDNFiMQgGq6e-5" target="DNAVT7jvhDNFiMQgGq6e-10">
          <mxGeometry relative="1" as="geometry" />
        </mxCell>
        <mxCell id="DNAVT7jvhDNFiMQgGq6e-5" value="" style="triangle;whiteSpace=wrap;html=1;direction=north;" vertex="1" parent="1">
          <mxGeometry x="205" y="300" width="110" height="90" as="geometry" />
        </mxCell>
        <mxCell id="DNAVT7jvhDNFiMQgGq6e-7" value="blob dead23&lt;br style=&quot;border-color: var(--border-color);&quot;&gt;&lt;span style=&quot;&quot;&gt;blob feeb1e&lt;/span&gt;" style="text;html=1;align=left;verticalAlign=middle;resizable=0;points=[];autosize=1;strokeColor=none;fillColor=none;" vertex="1" parent="1">
          <mxGeometry x="226" y="348" width="90" height="40" as="geometry" />
        </mxCell>
        <mxCell id="DNAVT7jvhDNFiMQgGq6e-8" value="Tree&lt;br&gt;8675309" style="text;html=1;align=center;verticalAlign=middle;resizable=0;points=[];autosize=1;strokeColor=none;fillColor=none;" vertex="1" parent="1">
          <mxGeometry x="177" y="302" width="70" height="40" as="geometry" />
        </mxCell>
        <mxCell id="DNAVT7jvhDNFiMQgGq6e-9" value="Commit&lt;br&gt;1492" style="text;html=1;align=center;verticalAlign=middle;resizable=0;points=[];autosize=1;strokeColor=none;fillColor=none;" vertex="1" parent="1">
          <mxGeometry x="181" y="120" width="60" height="40" as="geometry" />
        </mxCell>
        <mxCell id="DNAVT7jvhDNFiMQgGq6e-10" value="Four&lt;br&gt;score&lt;br&gt;and&lt;br&gt;seven&lt;br&gt;..." style="whiteSpace=wrap;html=1;fillColor=#eeeeee;strokeColor=#36393d;" vertex="1" parent="1">
          <mxGeometry x="179.5" y="450" width="60" height="100" as="geometry" />
        </mxCell>
        <mxCell id="DNAVT7jvhDNFiMQgGq6e-12" value="Mary&lt;br&gt;had a&lt;br&gt;little&lt;br&gt;lamb&lt;br&gt;..." style="whiteSpace=wrap;html=1;fillColor=#eeeeee;strokeColor=#36393d;" vertex="1" parent="1">
          <mxGeometry x="280.5" y="450" width="60" height="100" as="geometry" />
        </mxCell>
        <mxCell id="DNAVT7jvhDNFiMQgGq6e-13" value="" style="rounded=0;orthogonalLoop=1;jettySize=auto;html=1;dashed=1;entryX=0.5;entryY=0;entryDx=0;entryDy=0;exitX=0;exitY=0.5;exitDx=0;exitDy=0;" edge="1" parent="1" source="DNAVT7jvhDNFiMQgGq6e-5" target="DNAVT7jvhDNFiMQgGq6e-12">
          <mxGeometry relative="1" as="geometry">
            <mxPoint x="260" y="410" as="sourcePoint" />
            <mxPoint x="233" y="480" as="targetPoint" />
          </mxGeometry>
        </mxCell>
        <mxCell id="DNAVT7jvhDNFiMQgGq6e-14" value="blob&lt;br&gt;dead23" style="text;html=1;align=center;verticalAlign=middle;resizable=0;points=[];autosize=1;strokeColor=none;fillColor=none;" vertex="1" parent="1">
          <mxGeometry x="119.5" y="450" width="60" height="40" as="geometry" />
        </mxCell>
        <mxCell id="DNAVT7jvhDNFiMQgGq6e-15" value="blob&lt;br&gt;feeb1e" style="text;html=1;align=center;verticalAlign=middle;resizable=0;points=[];autosize=1;strokeColor=none;fillColor=none;" vertex="1" parent="1">
          <mxGeometry x="340.5" y="450" width="60" height="40" as="geometry" />
        </mxCell>
        <mxCell id="DNAVT7jvhDNFiMQgGq6e-17" value="" style="edgeStyle=orthogonalEdgeStyle;rounded=0;orthogonalLoop=1;jettySize=auto;html=1;dashed=1;" edge="1" parent="1" source="DNAVT7jvhDNFiMQgGq6e-16" target="DNAVT7jvhDNFiMQgGq6e-3">
          <mxGeometry relative="1" as="geometry" />
        </mxCell>
        <mxCell id="DNAVT7jvhDNFiMQgGq6e-16" value="master" style="rounded=1;whiteSpace=wrap;html=1;fillColor=#999999;strokeColor=#36393d;" vertex="1" parent="1">
          <mxGeometry x="380" y="175" width="89.5" height="30" as="geometry" />
        </mxCell>
        <mxCell id="DNAVT7jvhDNFiMQgGq6e-18" value="Branch" style="text;html=1;align=center;verticalAlign=middle;resizable=0;points=[];autosize=1;strokeColor=none;fillColor=none;" vertex="1" parent="1">
          <mxGeometry x="394.75" y="200" width="60" height="30" as="geometry" />
        </mxCell>
      </root>
    </mxGraphModel>
  </diagram>
</mxfile>
